<svg width="17" height="16" viewBox="0 0 17 16" fill="none" xmlns="http://www.w3.org/2000/svg">
<path d="M3.14046 14.6666H11.1405V13.3333H3.14046V5.33331H1.80713V13.3333C1.80713 14.0686 2.40513 14.6666 3.14046 14.6666Z" fill="black"/>
<path d="M13.8072 1.33331H5.80721C5.07188 1.33331 4.47388 1.93131 4.47388 2.66665V10.6666C4.47388 11.402 5.07188 12 5.80721 12H13.8072C14.5425 12 15.1405 11.402 15.1405 10.6666V2.66665C15.1405 1.93131 14.5425 1.33331 13.8072 1.33331ZM12.4739 7.33331H10.4739V9.33331H9.14054V7.33331H7.14054V5.99998H9.14054V3.99998H10.4739V5.99998H12.4739V7.33331Z" fill="black"/>
</svg>
