<svg width="64" height="64" viewBox="0 0 64 64" fill="none" xmlns="http://www.w3.org/2000/svg">
<path d="M32 2C48.6 2 62 15.4 62 32C62 48.6 48.6 62 32 62C15.4 62 2 48.6 2 32C2 15.4 15.4 2 32 2Z" fill="#FFDD67"/>
<path d="M35.8001 20.5C33.6001 21.6 30.3001 21.6 28.1001 20.5C25.8001 19.3 22.9001 18.5 19.4001 18.2C16.0001 17.9 8.90006 17.9 5.40006 19.2C5.00006 19.3 4.60006 19.5 4.20006 19.7C4.10006 19.8 4.00006 19.9 4.00006 20.3V20.8C4.00006 21.8 3.90006 21.4 4.60006 21.8C6.00006 22.6 6.80006 24.7 7.20006 27.6C7.80006 31.8 9.90005 34.5 13.2001 35.7C16.3001 36.9 19.8001 36.8 22.9001 35.6C24.6001 34.9 26.1001 33.9 27.3001 32.1C29.4001 29.1 28.7001 27.2 29.8001 24.6C30.7001 22.3 33.3001 22.3 34.3001 24.6C35.4001 27.2 34.7001 29.1 36.8001 32.1C38.0001 33.8 39.5001 34.9 41.2001 35.6C44.3001 36.8 47.8001 36.9 50.9001 35.7C54.3001 34.4 56.3001 31.8 56.9001 27.6C57.3001 24.7 58.1001 22.6 59.5001 21.8C60.2001 21.4 60.1001 21.8 60.1001 20.8V20.3C60.1001 19.9 60.1001 19.8 59.8001 19.7C59.4001 19.5 59.0001 19.3 58.6001 19.2C55.0001 17.9 47.9001 17.9 44.6001 18.2C41.1001 18.5 38.2001 19.3 35.8001 20.5Z" fill="#494949"/>
<path d="M44.6001 42.3C36.5001 48 27.5001 47.9 19.4001 42.3C18.4001 41.6 17.6001 42.8 18.2001 43.9C20.7001 47.9 25.6001 51.6 32.0001 51.6C38.4001 51.6 43.3001 48 45.8001 43.9C46.4001 42.8 45.6001 41.6 44.6001 42.3Z" fill="#664E27"/>
</svg>
