<svg width="64" height="64" viewBox="0 0 64 64" fill="none" xmlns="http://www.w3.org/2000/svg">
<path d="M56.5999 33.8C55.0999 46.1 30.3999 44.7 29.1999 38.5C19.9999 43.2 22.4999 50.5 22.4999 50.5C30.8999 69.5 68.8999 50.3 56.5999 33.8" fill="#B70B0B"/>
<path d="M44.2999 52.5C47.3999 54.4 45.5999 56.8 40.9999 54.8C37.0999 53.1 40.3999 49.7 41.7999 50.8C42.9999 51.9 43.6999 52.1 44.2999 52.5Z" fill="#FF4848"/>
<path d="M41.5999 52.3C38.0999 49.4 38.5999 47.8 35.0999 46.9C31.8999 41.8 29.1999 40 29.1999 40C27.4999 42.4 28.1999 44.6 28.1999 44.6C28.1999 44.6 31.5999 49 34.0999 50.3C37.1999 51.8 40.3999 54 40.3999 54C41.7999 55.1 43.1999 53.6 41.5999 52.3" fill="#D6A57C"/>
<path d="M28.1999 59.6001C28.2999 63.5001 22.3999 61.9001 24.4999 60.2001C24.7999 59.9001 24.7999 59.3001 24.5999 58.8001C23.2999 55.1001 27.7999 54.8001 27.8999 56.5001C27.9999 58.0001 28.1999 58.9001 28.1999 59.6001" fill="#FF4848"/>
<path d="M26.9 57.3C26.7 52.9 28.1 52.2 26.4 49.3C26.9 46.7 25.7 42.6 25.7 42.6C23.2 42.9 21.7 43.3 21.7 43.3C21.7 43.3 22.3 48.5 23.1 51C24.1 54.1 24.7 57.7 24.7 57.7C24.9 59.5 27.1 59.3 26.9 57.3" fill="#D6A57C"/>
<path d="M37.0999 10.6C39.7999 18.2 48.9999 20.6 54.0999 13.7C56.6999 23.7 42.9999 28.2 35.0999 28.5C10.6999 29.2 13.3999 15.5 13.3999 13.8C13.3999 -1.6 32.8999 -1.1 37.0999 10.6" fill="#594640"/>
<path d="M41.1 32.7001C39.5 31.8001 38.9 31.5 38.4 31.9L31.2 27.3C29.6 26.2 27.5 25.8 27.5 25.8C26.1 27.2 28 28.4 28 28.4L37.2 33.8L36.9 34.4001C36.6 34.8001 36.8 35.4001 37.2 35.7001L37.8 36C38.1 36.2 38.5 36.2 38.8 36C39.7 36.4 40.9 36.7001 41.8 35.2001C41.9 35.0001 42.7 33.7001 41.1 32.7001ZM14.7 26.8L10.3 22.4C10.7 22 10.6 21.4001 10.3 21.1001L9.79996 20.6001C9.49996 20.3001 9.09996 20.3 8.79996 20.4C8.09996 19.8 6.89996 19.2 5.69996 20.5C5.49996 20.7 4.39996 21.9001 5.79996 23.2001C7.09996 24.4001 7.59996 24.9001 8.19996 24.6001L13.9 30.2001L20.3 29.6L21.8 26.1001L14.7 26.8" fill="#D6A57C"/>
<path d="M24.8999 47.7C34.8999 44.4 36.4999 48 48.8999 47C61.2999 46 56.5999 33.8 56.5999 33.8C54.5999 44.3 30.5999 40.5 29.3999 34.3C31.5999 32.1 31.3999 30.1 27.5999 26C27.5999 26 26.2999 27.2 24.6999 27.2C23.0999 27.2 21.7999 26 21.7999 26C15.2999 32.8 20.2999 35 20.2999 35C21.9999 38.2 19.4999 42 22.4999 50.6C22.3999 50.5 23.4999 48.2 24.8999 47.7Z" fill="#FF4848"/>
<path d="M32.7 15.4C32.9 11 30.8 10.6 30.8 10.6C21.2 10.6 16.3 15.4 16.3 15.4C16.3 15.4 14 13.8 14 16.9C14 18.1 14.5 19.1 16 19.2C16.5 23.1 18.7 24.5 22 24.9V26H21.7L19.6 29.3C19.6 30 21.7 27.3 24.6 30.9C27.5 27.3 29.6 30 29.6 29.3L27.5 26H27V24.9C30.3 24.5 32.5 23.1 33.1 19.2C34.6 19.1 35.1 18.1 35.1 16.9C35.1 13.8 32.7 15.4 32.7 15.4" fill="#D6A57C"/>
<path d="M9.4 22.7C9.1 22.5 8.4 21.8 8.3 21.6C8.2 21.3 8.2 21 8.4 20.8C8.4 20.8 8.4 20.7 8.5 20.7C8.6 20.6 8.4 20.4 8.3 20.5C8.1 20.8 8 21.1 8 21.5C8 21.7 8.2 21.9 8.4 22.1C8.7 22.4 9.3 22.9 9.3 22.9C9.3 23 9.5 22.8 9.4 22.7Z" fill="#B58360"/>
<path d="M20.8999 17.3C21.7283 17.3 22.3999 16.6285 22.3999 15.8C22.3999 14.9716 21.7283 14.3 20.8999 14.3C20.0715 14.3 19.3999 14.9716 19.3999 15.8C19.3999 16.6285 20.0715 17.3 20.8999 17.3Z" fill="#664E27"/>
<path d="M28.3999 17.3C29.2283 17.3 29.8999 16.6285 29.8999 15.8C29.8999 14.9716 29.2283 14.3 28.3999 14.3C27.5715 14.3 26.8999 14.9716 26.8999 15.8C26.8999 16.6285 27.5715 17.3 28.3999 17.3Z" fill="#664E27"/>
<path d="M27.0998 20.5001C25.4998 21.7001 23.7998 21.7001 22.1998 20.5001C21.9998 20.4001 21.7998 20.6001 21.9998 20.8001C22.4998 21.7001 23.3998 22.5001 24.6998 22.5001C25.8998 22.5001 26.8998 21.7001 27.3998 20.8001C27.4998 20.6001 27.2998 20.4001 27.0998 20.5001Z" fill="#664E27"/>
</svg>
