<svg width="24" height="24" viewBox="0 0 24 24" fill="none" xmlns="http://www.w3.org/2000/svg">
<path d="M22.875 12.375C22.875 18.375 18 23.25 12 23.25C6 23.25 1.125 18.375 1.125 12.375C1.125 6.375 6 1.5 12 1.5C18 1.5 22.875 6.375 22.875 12.375Z" fill="#FFDD67"/>
<path d="M10.7249 12.9C10.0499 11.0625 9.0374 10.125 8.0249 10.125C7.0124 10.125 5.9999 11.0625 5.3249 12.9C5.2499 13.0875 5.5874 13.425 5.7749 13.2375C6.4124 12.5625 7.1999 12.2625 8.0249 12.2625C8.8499 12.2625 9.6374 12.525 10.2749 13.2375C10.4624 13.425 10.7999 13.0875 10.7249 12.9ZM18.6749 12.9C17.9999 11.0625 16.9874 10.125 15.9749 10.125C14.9624 10.125 13.9499 11.0625 13.2749 12.9C13.1999 13.0875 13.5374 13.425 13.7249 13.2375C14.3624 12.5625 15.1499 12.2625 15.9749 12.2625C16.7999 12.2625 17.5874 12.525 18.2249 13.2375C18.3749 13.425 18.7499 13.0875 18.6749 12.9V12.9ZM16.5749 15.825C13.6499 17.8875 10.3874 17.85 7.4624 15.825C7.1249 15.5625 6.7874 16.0125 7.0499 16.3875C7.9499 17.85 9.7499 19.1625 12.0374 19.1625C14.3249 19.1625 16.1249 17.85 17.0249 16.3875C17.2124 16.0125 16.9124 15.6 16.5749 15.825Z" fill="#664E27"/>
<path d="M20.3626 2.70002C20.1751 1.12502 17.2126 0.300024 10.6876 0.975024C4.5751 1.65002 1.4626 3.11252 1.6126 4.65002C1.8751 7.05002 6.1876 7.87502 11.3626 7.31252C16.5376 6.78752 20.5876 5.10002 20.3626 2.70002V2.70002ZM11.1001 4.72502C7.6501 5.10002 4.7626 4.87502 4.7251 4.27502C4.6876 4.05002 5.0626 3.82502 5.6626 3.56252C7.4251 2.28752 9.6376 1.50002 12.0001 1.50002C13.6876 1.50002 15.3001 1.87502 16.7251 2.58752C17.0626 2.70002 17.2501 2.81252 17.2501 2.96252C17.3251 3.52502 14.5501 4.35002 11.1001 4.72502" fill="#4AA9FF"/>
</svg>
