<svg width="64" height="64" viewBox="0 0 64 64" fill="none" xmlns="http://www.w3.org/2000/svg">
<path d="M47.7999 2L35.2 21H41.5L54.0999 2H47.7999Z" fill="#428BC1"/>
<path d="M41.5 2L28.8 21H35.2001L47.8 2H41.5Z" fill="#E8E8E8"/>
<path d="M35.2 2L22.5 21H28.8L41.5 2H35.2Z" fill="#ED4C5C"/>
<path d="M20.4 16.8C19.8 16.8 19.3 17.3 19.3 17.9V27.4C19.3 28 19.8 28.5 20.4 28.5H43.6C44.2 28.5 44.7001 28 44.7001 27.4V17.9C44.7001 17.3 44.2 16.8 43.6 16.8H20.4ZM42.5 24.1C42.5 24.7 42.0001 25.2001 41.4001 25.2001H22.4C21.8 25.2001 21.3 24.7 21.3 24.1V19.9C21.3 19.3 21.8 18.8 22.4 18.8H41.4001C42.0001 18.8 42.5 19.3 42.5 19.9V24.1Z" fill="#FFC200"/>
<path d="M22.4999 21H28.7999L16.1999 2H9.8999L22.4999 21Z" fill="#ED4C5C"/>
<path d="M28.7999 21H35.2L22.5 2H16.2L28.7999 21Z" fill="#E8E8E8"/>
<path opacity="0.5" d="M33.0999 5.19995L29.8999 9.89995L37.2999 21H41.4999L42.4999 19.4L33.0999 5.19995Z" fill="#3E4347"/>
<path d="M35.2 21H41.5L28.8 2H22.5L35.2 21Z" fill="#428BC1"/>
<path d="M32 62C42.8801 62 51.7001 53.18 51.7001 42.3C51.7001 31.42 42.8801 22.6 32 22.6C21.12 22.6 12.3 31.42 12.3 42.3C12.3 53.18 21.12 62 32 62Z" fill="#FFC200"/>
<path d="M32.3001 24.4C22.2001 24.4 14.1001 32.6 14.1001 42.6C14.1001 45.6 14.8001 48.4 16.1001 50.9C15.5001 48.9 15.1001 46.8 15.1001 44.6C15.1001 33.9 23.3001 25.2 33.8001 24.4H32.3001" fill="#E68A00"/>
<path d="M46 31C51.1 40 48.5 51.6 39.6 57.5C37.8 58.7 35.8 59.6 33.8 60.2C36.6 59.9 39.3 58.9 41.8 57.2C50.2 51.6 52.4001 40.4 46.9001 32.2L46 31Z" fill="#FFE394"/>
<path d="M32 34.3V27.9L28.8 37.9L30.2001 39.7L32 34.3Z" fill="#F2B200"/>
<path d="M33.8 39.7L35.2 37.9L32 27.9V34.3L33.8 39.7Z" fill="#E68A00"/>
<path d="M34.8 43L37.2001 44.1L45.7001 37.9L39.4001 39.7L34.8 43Z" fill="#C47500"/>
<path d="M39.4001 39.7L45.7001 37.9H35.2001L33.8 39.7H39.4001Z" fill="#FFE394"/>
<path d="M30.2001 39.7L28.8 37.9H18.3L24.6 39.7H30.2001Z" fill="#FFD252"/>
<path d="M24.6 39.7L18.3 37.9L26.7001 44.1L29.2001 43L24.6 39.7Z" fill="#FFDB75"/>
<path d="M34.8 43L36.6 48.4L40.5 54.1L37.2001 44.1L34.8 43Z" fill="#E68A00"/>
<path d="M32 45.1V47.9L40.5 54.1L36.6 48.4L32 45.1ZM29.2 43L26.7 44.1L23.5 54.1L27.4 48.4L29.2 43Z" fill="#F2B200"/>
<path d="M27.4 48.4L23.5 54.1L32 47.9V45.1L27.4 48.4Z" fill="#E68A00"/>
<path d="M33.8001 39.7001L32.0001 34.3L30.2001 39.7001H24.6001L29.2001 43L27.4001 48.4001L32.0001 45.1L36.6001 48.4001L34.8001 43L39.4001 39.7001H33.8001Z" fill="#FFCE31"/>
</svg>
