<svg width="64" height="64" viewBox="0 0 64 64" fill="none" xmlns="http://www.w3.org/2000/svg">
<path d="M37.3001 31.9C36.8001 34.1 38.2001 36.4 40.5001 36.9C42.8001 37.4 45.1001 36 45.6001 33.8L51.7001 7.6C52.2001 5.4 50.8001 3.1 48.5001 2.6C46.2001 2.1 43.9001 3.5 43.4001 5.7L37.3001 31.9Z" fill="#D6A57C"/>
<path d="M38.9 35.6C41.3 36.1 43.4999 34.7 44.0999 32.5L50.2 6.3C50.5 5.1 50.2 3.9 49.5 3C51.6 3.9 52.3 5.7 51.9 7.7L45.7999 33.9C45.2999 36.1 43 37.6 40.7 37C39.6 36.8 38.8 36.2 38.2 35.4C38.3 35.4 38.6 35.5 38.9 35.6Z" fill="#B58360"/>
<path d="M45.2001 34.5001C45.2001 34.5001 36.5001 25.9001 21.1001 30.2001C21.1001 30.2001 12.0001 31.8001 12.5001 36.4001C12.5001 36.4001 12.2001 47.8001 16.1001 54.6001C22.0001 64.7001 44.7001 66.3001 50.4001 47.6001C51.6001 43.9001 50.7001 33.9001 45.2001 34.5001Z" fill="#D6A57C"/>
<path d="M29.7001 33.4001C30.1001 35.7001 32.4001 37.1001 34.7001 36.7001C37.0001 36.3001 38.6001 34.1001 38.2001 31.8001L33.2001 5.40006C32.8001 3.10006 30.5001 1.70006 28.2001 2.10006C25.9001 2.50006 24.3001 4.70006 24.8001 7.00006L29.7001 33.4001Z" fill="#D6A57C"/>
<path d="M32.6 36.1C35 35.7 36.5 33.5 36.1 31.2L31.1 4.8C30.8 3.6 30 2.6 29 2C31.2 2 32.8 3.4 33.2 5.4L38.2 31.8C38.6 34.1 37.1 36.3 34.8 36.7C33.7 36.9 32.7 36.7 31.8 36.2C32 36.2 32.3 36.2 32.6 36.1Z" fill="#B58360"/>
<path d="M11.9999 32.0999C11.6999 29.7999 13.3999 27.6999 15.7999 27.3999H15.8999C18.1999 27.1999 20.3999 28.7999 20.5999 31.1999L21.2999 37.6999C21.5999 39.9999 19.8999 42.0999 17.4999 42.3999H17.3999C14.9999 42.5999 12.8999 40.9999 12.6999 38.5999L11.9999 32.0999Z" fill="#D6A57C"/>
<path d="M20.1 27.3999C19.8 25.0999 21.5 22.9999 23.9 22.6999H24C26.4 22.4999 28.5 24.0999 28.7 26.4999L29.4 32.9999C29.7 35.2999 28 37.3999 25.6 37.6999H25.5C23.1 37.8999 21 36.2999 20.8 33.8999L20.1 27.3999Z" fill="#D6A57C"/>
<path d="M16.1001 41C18.5001 40.7001 20.1001 38.7 19.9001 36.3L19.2001 29.8C19.1001 29.2 18.8001 28.5 18.5001 27.9C20.0001 28.6 20.5001 29.8001 20.7001 31.2001L21.4001 37.7001C21.7001 40 20.0001 42.1 17.7001 42.3C16.0001 42.5 14.4001 41.6 13.6001 40.3C14.2001 40.8 15.1001 41.1 16.1001 41ZM24.1001 36.3C26.5001 36 28.2001 34.0001 27.9001 31.7001L27.2001 25.2001C27.1001 24.6001 26.8001 23.8 26.5001 23.3C27.9001 24.1 28.5001 25.3001 28.7001 26.7001L29.4001 33.2001C29.7001 35.5001 28.0001 37.5 25.6001 37.8H25.5001C23.8001 38 22.2001 37.1 21.4001 35.8C22.2001 36.2 23.1001 36.4 24.1001 36.3ZM41.4001 40.8C36.6001 38.5 25.7001 42.5 27.9001 52.5C27.9001 42.1 37.3001 40.3 41.4001 40.8Z" fill="#B58360"/>
<path d="M39.6 30.5001C36.1 28.4001 35.5 31.7001 29.6 31.9001C27 32.0001 25.9 37.3001 29.8 39.2001C35.2 41.9001 35.6 38.1001 37 39.6001C38.4 41.2001 39.7 41.5001 40.9 43.3001C41.8 44.6001 48.5 42.6001 49.2 39.9001C50.5 34.6001 45 33.8001 39.6 30.5001Z" fill="#B58360"/>
<path d="M40.0001 31.4C36.4001 29.3 35.7001 32.6 29.6001 32.8C26.9001 32.9 25.7001 38.4 29.8001 40.4C35.4001 43.2 35.9001 39.2 37.2001 40.8C38.7001 42.4 40.0001 42.8 41.3001 44.7C42.2001 46.1 39.8001 51.3 39.8001 51.3C39.8001 51.3 46.7001 56.2 48.1001 53.4C50.7001 48.2 50.0001 44.2 49.9001 41.2C49.7001 34.1 45.7001 34.8 40.0001 31.4Z" fill="#D6A57C"/>
<path d="M46.9 34.9C50.7 36.7 50.5 46.6 47.7 51.4C40.6 63.3 25 63.1 17.7 56.7C24.5 64 41.0999 64.7 48.7999 52.4C51.8999 47.5 52.9 36.1 46.9 34.9Z" fill="#B58360"/>
<path d="M40.5 44.8C40.8 45.2 40.7 46 40.6 46.9C41 45.5 41.3 44.1 40.9 43.5C39.7 41.6 39 41.2 37.5 39.6C36.1 38.1 35.7 42 30.1 39.2C28 38.2 27.3 36.2 27.5 34.5C26.7 36.3 27.1 39.1 29.8 40.5C35.4 43.3 35.9 39.3 37.2 40.9C38.6 42.5 39.3 42.9 40.5 44.8Z" fill="#B58360"/>
</svg>
