<svg width="64" height="64" viewBox="0 0 64 64" fill="none" xmlns="http://www.w3.org/2000/svg">
<path d="M20.5999 55.0001C21.5999 56.1001 28.4999 56.0001 29.6999 55.2001C32.1999 53.7001 49.5999 32.8001 34.4999 26.7001C22.9999 22.0001 20.4999 32.6001 19.2999 33.5001C16.9999 35.3001 18.6999 52.9001 20.5999 55.0001Z" fill="#B58360"/>
<path d="M57.6001 54.3C40.2001 54.4 48.7001 56.9 34.8001 56.9C29.3001 56.9 24.6001 53.3 24.6001 48.3V48.2C33.2001 42.5 18.8001 45 21.0001 31.5C21.7001 27 26.5001 26.7 32.8001 26.1C38.1001 25.6 56.0001 32.4 56.0001 32.4C62.4001 34.7 64.8001 54.3 57.6001 54.3Z" fill="#D6A57C"/>
<path d="M20.1 23.2C22.9 21.3 36.1 26.4 36.1 26.4L28 46.8C28 46.8 -0.599955 46 8.70005 38.2C16.5 31.7 16.2 25.9 20.1 23.2Z" fill="#D6A57C"/>
<path d="M7.79994 39.0999C5.59994 44.5999 25.6999 45.4999 28.3999 45.5999L27.8999 46.7999C27.8999 46.7999 1.49994 45.9999 7.79994 39.0999ZM27.5999 35.0999C30.9999 40.2999 32.4999 41.3999 32.4999 41.3999C32.4999 41.3999 29.0999 40.5999 26.7999 37.1999L27.5999 35.0999Z" fill="#B58360"/>
<path d="M27.3999 34C28.8999 34 27.3999 41.3 29.0999 43.3C28.6999 44.6 26.0999 43.8 26.0999 43.8C26.0999 43.8 26.8999 34.8 26.7999 34.3L27.3999 34Z" fill="#B58360"/>
<path d="M19.5999 40.4999L21.0999 41.9999C21.0999 41.9999 34.7999 29.3999 38.5999 26.8999L34.0999 25.8999L19.5999 40.4999Z" fill="#B58360"/>
<path d="M8.5 44.5L12.9 48.8L47.6 14.3L43.2 10L8.5 44.5Z" fill="#428BC1"/>
<path d="M43.9001 10.8L46.8 13.6L50.6 9.9L47.7001 7L43.9001 10.8ZM37.8 14.1L43.4001 19.6L44.4001 18.7L38.8 13.1L37.8 14.1ZM28.8 21.5L29.6 22.2L38.8 13.1L38 12.4L28.8 21.5Z" fill="#574137"/>
<path d="M12.9001 48.8L3.1001 54.2L8.5001 44.5L12.9001 48.8Z" fill="#A9B5AE"/>
<path d="M2 54.6001L2.7 55.3001L4.7 53.3001L4 52.6001L2 54.6001Z" fill="#574137"/>
<path d="M39.4 51.4C39.6 50.8 39.6999 50.3 39.7999 49.7C39.8999 49.4 39.9999 49.1 40.0999 48.7C41.0999 44.4 24.7999 41.6 24.7999 41.6L23.5999 41.3C20.9999 40.7 15.2999 40 11.0999 44.8C8.19995 48.2 11.1999 51.6 13.8999 51.8C21.1999 52.5 26.5999 54.3 30.6999 56C34.2999 57.7 37.9 55.8 39.4 51.4Z" fill="#D6A57C"/>
<path d="M23.5 42.9001C20.9 42.0001 16.7 39.7001 11.3 44.5001C16.3 38.4001 24.4 41.5001 24.7 41.6001C32.3 42.6001 37.3 39.6001 37.3 39.6001C35.8 43.4001 27.3 44.2001 23.5 42.9001ZM35.3 55.6001C49.2 55.6001 40.8 53.1001 58.1 53.0001C59.6 53.0001 60.8 51.5001 61.5 50.1001C61 52.8001 59.5 54.3001 57.6 54.3001C40.2 54.4001 48.6 57.0001 34.7001 57.0001C29.2001 57.0001 24 54.2001 19.6 52.8001C19.5 52.7001 30.1 55.6001 35.3 55.6001Z" fill="#B58360"/>
</svg>
